<?xml version="1.0" encoding="utf-8"?>
<!-- Generator: Adobe Illustrator 25.4.0, SVG Export Plug-In . SVG Version: 6.00 Build 0)  -->
<svg version="1.1" id="Layer_1" xmlns:serif="http://www.serif.com/"
	 xmlns="http://www.w3.org/2000/svg" xmlns:xlink="http://www.w3.org/1999/xlink" x="0px" y="0px" viewBox="0 0 607.1 594.1"
	 style="enable-background:new 0 0 607.1 594.1;" xml:space="preserve">
<style type="text/css">
	.st0{fill-rule:evenodd;clip-rule:evenodd;fill:#FFFFFF;}
	.st1{fill-rule:evenodd;clip-rule:evenodd;fill:#016BBA;}
</style>
<path class="st0" d="M283,4.7c12.9-6.2,28-6.2,40.9,0c46.4,22.4,159.1,76.7,205.4,99c12.9,6.2,22.3,18,25.5,32
	c11.4,50.2,39.3,172.3,50.7,222.5c3.2,14-0.2,28.6-9.1,39.8c-32.1,40.3-110.1,138.2-142.2,178.4c-8.9,11.2-22.5,17.8-36.9,17.8
	c-51.5,0-176.5,0-228,0c-14.3,0-27.9-6.5-36.9-17.8C120.5,536.2,42.5,438.3,10.5,398c-8.9-11.2-12.3-25.9-9.1-39.8
	C12.8,308,40.7,185.9,52.1,135.7c3.2-14,12.6-25.8,25.5-32C124,81.3,236.7,27,283,4.7L283,4.7z"/>
<path class="st1" d="M584.4,265.1l21.5,94.1c3,13.3-0.1,27.2-8.6,37.9c-31.9,40-111.7,140.1-143.6,180.1
	c-8.5,10.7-21.4,16.9-35,16.9h-96.6L584.4,265.1L584.4,265.1z M571.1,206.7L262.2,594.1h-53.4l350.5-439.5L571.1,206.7z M498.3,88.9
	l32.2,15.5c2.1,1,4.1,2.2,6,3.5L158.1,582.3c-1.7-1.6-3.3-3.3-4.8-5.1l-22.3-27.9L498.3,88.9L498.3,88.9z M454.9,68L101.1,511.7
	l-26.7-33.5L416.3,49.4L454.9,68L454.9,68z M155,191.7c11.8-14.8,33.5-17.3,48.3-5.4c14.8,11.8,17.3,33.5,5.4,48.3
	c-11.8,14.8-33.5,17.3-48.3,5.4C145.6,228.2,143.2,206.6,155,191.7z M162.8,292.1L44.4,440.6L9.8,397.2
	c-8.5-10.7-11.7-24.6-8.6-37.9C12.5,309.4,41,184.6,52.4,134.7c3-13.3,11.9-24.5,24.2-30.4C122.7,82.2,238,26.6,284.1,4.4
	c12.3-5.9,26.6-5.9,38.9,0L373,28.5L254.6,177c-5.1-10.3-12.5-19.7-22.1-27.4c-35.1-28-86.2-22.2-114.2,12.9s-22.2,86.2,12.9,114.2
	C140.8,284.3,151.6,289.5,162.8,292.1L162.8,292.1z"/>
</svg>
